<?xml version="1.0" standalone="no"?>
<!DOCTYPE svg PUBLIC "-//W3C//DTD SVG 20010904//EN"
 "http://www.w3.org/TR/2001/REC-SVG-20010904/DTD/svg10.dtd">
<svg version="1.0" xmlns="http://www.w3.org/2000/svg"
 width="1254.000000pt" height="1254.000000pt" viewBox="0 0 1254.000000 1254.000000"
 preserveAspectRatio="xMidYMid meet">
<metadata>
Created by potrace 1.16, written by Peter Selinger 2001-2019
</metadata>
<rect width="1254.000000" height="1254.000000" fill="#111314"/>
<g transform="translate(0.000000,1254.000000) scale(0.100000,-0.100000)"
fill="#6CBFA6" stroke="none">
<path d="M3628 10250 c-125 -22 -243 -104 -321 -222 -88 -133 -140 -280 -196
-556 -92 -450 -123 -1123 -71 -1551 l11 -91 -55 -89 c-202 -326 -346 -739
-397 -1136 -15 -114 -18 -440 -6 -591 l8 -101 -138 -22 c-76 -12 -153 -30
-171 -38 -87 -41 -84 -182 6 -220 33 -14 48 -13 172 6 74 12 147 24 162 26 24
4 27 1 39 -48 14 -59 92 -274 120 -329 11 -21 19 -41 19 -47 0 -5 -59 -38
-131 -72 -154 -74 -189 -106 -189 -174 0 -54 35 -100 90 -116 36 -11 44 -9
157 44 134 63 202 91 207 86 1 -2 26 -38 54 -79 29 -41 80 -109 116 -150 l63
-74 -61 -76 c-136 -167 -298 -427 -402 -645 -174 -365 -270 -689 -326 -1105
-19 -144 -16 -519 6 -660 59 -391 175 -655 393 -897 l74 -82 -35 -108 c-84
-262 -137 -541 -156 -828 -6 -88 -8 -193 -4 -232 l6 -73 174 0 174 0 0 135 c0
272 67 699 139 887 l10 26 78 -33 c299 -129 682 -151 1019 -59 186 50 374 130
565 240 42 24 78 44 81 44 3 0 8 -21 12 -46 8 -63 65 -179 115 -235 53 -60
133 -114 217 -147 l69 -27 894 -3 c975 -3 949 -4 1070 55 85 41 184 141 230
234 22 43 43 99 47 124 3 25 8 45 10 45 2 0 33 -18 69 -40 164 -100 402 -205
575 -254 166 -46 240 -57 425 -63 268 -8 450 23 663 115 l90 39 36 -132 c62
-227 106 -548 106 -772 l0 -133 174 0 174 0 4 52 c7 88 -10 368 -32 520 -25
172 -76 402 -122 554 l-34 111 63 69 c393 430 520 1112 357 1914 -99 484 -336
998 -637 1383 -42 54 -77 100 -77 103 0 2 24 33 53 67 29 34 81 101 115 149
74 101 46 100 245 6 148 -70 174 -71 226 -12 24 26 31 44 31 75 0 72 -22 93
-173 170 -76 39 -137 73 -135 77 26 58 112 286 130 344 23 77 23 78 57 78 19
0 90 -10 158 -22 117 -20 126 -20 159 -5 49 24 76 71 71 125 -8 81 -42 100
-232 132 -71 12 -132 23 -134 25 -2 2 2 67 9 145 22 245 4 556 -46 805 -56
276 -186 603 -346 868 l-59 99 15 146 c62 594 -10 1441 -157 1854 -91 253
-223 386 -418 419 -204 34 -547 -112 -879 -375 -206 -163 -481 -437 -696 -693
-42 -51 -84 -93 -91 -93 -8 0 -67 16 -131 35 -135 41 -360 88 -512 107 -161
20 -624 17 -780 -5 -168 -24 -341 -60 -487 -102 -67 -19 -126 -35 -131 -35 -5
0 -69 71 -143 158 -249 293 -539 572 -753 726 -286 206 -566 309 -748 276z
m242 -411 c262 -100 658 -444 1021 -885 176 -214 195 -232 252 -249 72 -21 94
-19 209 19 305 102 597 148 943 148 346 0 569 -35 919 -142 70 -22 142 -40
160 -40 64 0 130 43 208 136 206 245 274 322 417 464 247 246 493 435 686 526
138 65 221 76 281 37 77 -49 162 -354 204 -725 51 -454 53 -802 9 -1228 -7
-63 -9 -131 -5 -151 3 -21 33 -77 64 -125 135 -206 204 -349 279 -574 105
-317 147 -634 123 -935 -6 -77 -13 -148 -16 -157 -5 -16 -21 -18 -147 -18
-139 0 -353 -18 -482 -41 -129 -22 -173 -115 -96 -202 26 -29 35 -32 83 -32
29 0 107 6 173 14 131 14 389 20 400 9 12 -11 -83 -274 -120 -336 -1 -1 -57
11 -124 27 -68 17 -183 40 -257 51 -117 18 -138 18 -167 7 -71 -31 -97 -107
-58 -170 27 -44 48 -52 196 -76 167 -28 265 -51 265 -63 0 -16 -104 -143 -191
-233 -90 -94 -109 -127 -109 -193 0 -57 21 -93 105 -181 316 -328 599 -903
699 -1421 133 -684 28 -1236 -303 -1583 -318 -334 -851 -407 -1388 -191 -317
128 -650 366 -815 584 -197 259 -211 571 -35 765 57 63 134 110 217 131 84 21
227 14 325 -16 131 -41 317 -147 485 -275 74 -57 112 -75 155 -75 69 0 138 58
151 126 13 68 -17 117 -125 202 -273 218 -526 336 -778 365 l-103 11 0 446 c0
482 -4 518 -56 622 -55 108 -186 218 -313 260 -66 22 -70 23 -919 26 -947 3
-959 3 -1087 -59 -88 -43 -188 -140 -233 -226 -58 -110 -62 -150 -62 -634 l0
-436 -82 -7 c-255 -21 -507 -137 -799 -367 -93 -74 -119 -112 -119 -176 0 -87
85 -162 168 -148 43 7 48 10 222 135 135 96 261 164 380 206 101 35 248 43
340 20 307 -79 427 -434 260 -766 -110 -218 -389 -464 -707 -623 -448 -225
-872 -257 -1220 -92 -218 103 -377 266 -489 499 -57 120 -96 241 -120 376 -47
268 -32 647 36 939 31 131 116 399 161 507 134 323 356 678 544 874 85 89 105
123 105 185 0 63 -19 95 -121 204 -88 92 -179 205 -179 221 0 10 178 52 294
71 62 10 86 18 112 41 85 75 33 202 -82 200 -77 -2 -376 -61 -448 -88 -12 -5
-24 13 -52 73 -29 63 -94 242 -94 259 0 9 274 3 376 -8 60 -7 135 -12 167 -13
55 0 61 2 93 37 27 30 34 46 34 77 0 48 -35 95 -83 110 -68 23 -250 42 -444
48 l-202 6 -8 56 c-16 109 -9 497 10 616 54 327 180 675 337 930 24 39 58 94
76 123 43 71 47 106 29 237 -23 153 -31 665 -16 888 27 373 97 762 168 932 28
66 73 126 107 141 42 19 110 10 206 -27z m3278 -5655 c47 -19 88 -58 115 -109
22 -39 22 -50 25 -517 l3 -477 -53 -27 c-294 -147 -464 -485 -419 -828 32
-242 140 -444 353 -662 l118 -121 0 -83 c0 -114 -14 -155 -75 -216 -37 -37
-62 -54 -97 -62 -34 -9 -272 -12 -876 -12 -936 0 -900 -3 -976 73 -52 52 -66
99 -66 214 l0 89 113 115 c163 165 252 303 311 480 93 277 60 541 -95 770 -57
84 -179 193 -259 231 l-69 33 0 464 c-1 324 2 475 11 502 15 52 68 112 120
138 43 21 48 21 911 21 762 0 872 -2 905 -16z M3911 9092 c-65 -33 -90 -92
-112 -271 -18 -140 -17 -527 0 -569 14 -34 55 -62 89 -62 11 0 62 29 113 64
156 105 255 164 380 227 206 104 204 128 -29 359 -148 146 -218 204 -298 244
-61 30 -96 33 -143 8z M8533 9086 c-76 -36 -147 -91 -284 -223 -154 -148 -199
-204 -199 -247 0 -49 21 -68 132 -125 126 -65 237 -131 380 -228 62 -42 119
-73 133 -73 14 0 39 13 56 28 30 27 32 33 41 133 12 127 3 389 -17 524 -18
116 -46 181 -94 212 -44 29 -83 29 -148 -1z M4645 6477 c-205 -53 -334 -254
-296 -462 24 -131 97 -227 214 -285 244 -120 524 50 544 330 19 262 -221 478
-462 417z M7713 6475 c-120 -33 -204 -103 -257 -215 -25 -54 -31 -80 -34 -158
-4 -84 -2 -101 23 -163 36 -93 105 -168 193 -211 61 -30 74 -33 162 -33 82 0
103 4 152 27 200 94 288 341 193 543 -50 105 -126 169 -246 206 -71 22 -114
23 -186 4z M6030 5942 c-47 -23 -80 -75 -80 -127 0 -54 39 -116 119 -185 54
-47 61 -57 61 -89 0 -68 -20 -114 -69 -162 -81 -78 -163 -79 -254 -3 -43 36
-106 33 -145 -6 -41 -41 -48 -79 -24 -132 23 -54 68 -92 149 -130 131 -62 299
-30 424 81 l46 40 33 -34 c42 -44 131 -91 209 -111 107 -27 237 6 321 82 81
73 93 143 36 200 -29 29 -41 34 -80 34 -36 0 -52 -6 -79 -30 -61 -53 -122 -63
-192 -31 -76 34 -125 113 -125 200 0 30 10 43 74 102 88 82 110 122 104 191
-6 55 -33 92 -85 114 -51 22 -396 19 -443 -4z M5505 3964 c-72 -37 -105 -91
-105 -170 0 -97 81 -176 179 -176 54 0 94 18 132 59 38 41 49 66 49 117 0 56
-14 93 -48 130 -51 55 -144 73 -207 40z"/>
</g>
</svg>
